<svg xmlns="http://www.w3.org/2000/svg" width="132.36" height="59.309" viewBox="0 0 132.36 59.309">
  <g id="Group_1" data-name="Group 1" transform="translate(-730 -664.691)">
    <g id="AL-Logo-Black" transform="translate(730 664.691)">
      <path id="Path_114" data-name="Path 114" d="M196.647,87.609h-3.8V56.816h-9.67V43.7h13.474v9.147h3.686l-.119-13H180.24V56.858H169.659L169.5,28.3h42.166V56.982h-3.8V32.273H173.344l.079,20.57H176.4V35.833h27.583l.159,20.984h-7.53l.04,30.793Zm-9.67-34.766H192.8V47.67h-5.826Z" transform="translate(-112.738 -28.3)" fill="#f8b24a"/>
      <path id="Path_115" data-name="Path 115" d="M247.2,107.3h3.012v18.983h4.993v2.536H247.2Z" transform="translate(-159.206 -73.473)" fill="#fff"/>
      <path id="Path_116" data-name="Path 116" d="M273.339,120.814H277.1l-1.863-10.343h-.04Zm.317-13.514H277.1l4.359,21.48H278.49l-.991-5.469h-4.637l-.991,5.469H268.9Z" transform="translate(-171.723 -73.473)" fill="#fff"/>
      <path id="Path_117" data-name="Path 117" d="M307.212,126.481h1.863c1.7,0,1.981-.515,1.981-3.884,0-3.25-.277-3.725-1.9-3.725h-1.942v7.609Zm0-9.947h1.744c1.783,0,1.981-.357,1.981-3.884,0-2.457-.4-3.052-2.3-3.052h-1.387v6.935ZM304.2,107.3h5.192c3.646,0,4.28,1.268,4.28,5.192,0,4.24-.674,4.914-2.695,5.192v.079c2.378.436,2.853,1.229,2.853,4.914,0,4.637-.594,6.143-4.954,6.143H304.2Z" transform="translate(-191.973 -73.473)" fill="#fff"/>
      <path id="Path_118" data-name="Path 118" d="M331.1,122.416h2.972v1.744c0,1.427.515,2.338,1.744,2.338,1.585,0,1.982-1.07,1.982-2.457,0-1.823-.079-2.417-3.17-5.469-1.9-1.9-3.487-3.646-3.487-6.539,0-3.527,1.625-5.033,4.874-5.033a5.026,5.026,0,0,1,3.487,1.189,3.422,3.422,0,0,1,.872,2.734v2.021H337.56v-1.7c0-1.229-.515-1.942-1.664-1.942-1.229,0-1.783.674-1.783,2.338,0,1.466.277,2.338,3.012,5.192,2.933,3.052,3.448,4.082,3.448,6.658,0,3.369-1.308,5.31-4.835,5.31-2.734,0-4.6-1.149-4.6-3.844l-.04-2.536Z" transform="translate(-208.212 -73.292)" fill="#fff"/>
      <path id="Path_119" data-name="Path 119" d="M39.6,120.814h3.765L41.5,110.47h-.079Zm.357-13.514H43.4l4.359,21.48H44.79l-.991-5.469H39.163l-.991,5.469H35.2Z" transform="translate(-35.2 -73.473)" fill="#fff"/>
      <path id="Path_120" data-name="Path 120" d="M71.972,116.97h.753c2.338,0,2.695-.436,2.695-3.646,0-3.17-.159-3.487-2.021-3.487H71.972v7.133ZM69,107.3h4.6c4.359,0,4.8,1.149,4.8,5.865,0,2.893-.4,4.122-2.814,4.874v.04c2.021.2,2.695,1.229,2.695,3.289v4.676a16.768,16.768,0,0,0,.159,2.734H75.618a3.558,3.558,0,0,1-.357-1.942V122c0-2.021-.357-2.576-2.3-2.576h-1.03v9.353H69Z" transform="translate(-55.606 -73.473)" fill="#fff"/>
      <rect id="Rectangle_136" data-name="Rectangle 136" width="2.972" height="21.48" transform="translate(25.397 33.827)" fill="#fff"/>
      <path id="Path_121" data-name="Path 121" d="M110.239,120.814H114l-1.863-10.343h-.079Zm.317-13.514H114l4.359,21.48H115.39l-.991-5.469h-4.637l-.991,5.469H105.8Z" transform="translate(-76.443 -73.473)" fill="#fff"/>
      <path id="Path_122" data-name="Path 122" d="M142.672,126.283H144.1c2.219,0,2.616-1.149,2.616-4.835v-7.371c0-3.17-.317-4.24-2.853-4.24h-1.189v16.447ZM139.7,107.3h4.8c4.835,0,5.192,1.625,5.192,7.847v6.38c0,5.509-.991,7.213-5.667,7.213H139.7Z" transform="translate(-96.292 -73.473)" fill="#fff"/>
      <path id="Path_123" data-name="Path 123" d="M168.7,107.3h4.122l3.487,17.873h.079V107.3H179.2v21.519h-4.28l-3.527-18.349h-.079v18.349H168.7Z" transform="translate(-113.235 -73.473)" fill="#fff"/>
      <path id="Path_124" data-name="Path 124" d="M199.2,107.3h8.085v2.536h-5.112v6.7h4.835v2.5h-4.835v7.252h5.112v2.536H199.2Z" transform="translate(-131.127 -73.473)" fill="#fff"/>
    </g>
  </g>
</svg>
